<svg id="eaWNUSdt7Jx1" xmlns="http://www.w3.org/2000/svg" xmlns:xlink="http://www.w3.org/1999/xlink" viewBox="0 0 300 300" shape-rendering="geometricPrecision" text-rendering="geometricPrecision"><g transform="matrix(1.54219 0 0 1.54219-76.077545-72.0679)"><path d="M138.27112,125.231437c0,0,0,2.575207,0,15.871867-65.172609,0-65.172608,58.63472,0,58.634719q0,5.941061,0,15.36396c-88.270808.062191-85.514234-89.524351,0-89.870546Z" transform="matrix(0-1 0.995227 0-64.075302 288.27112)" fill="#fff" stroke-width="3"/><path d="M168.43175,72.30432l16.2004.04264c0,36.47807,0,62.53384,0,78.1673c64.217694,0,64.217694,65.17175,0,65.17175-3.199,0-16.2004,0-16.2004,0v-143.38169Zm16.2004,91.03783v37.94551c19.729853,0,29.87046-4.201237,29.87046-18.70178s-10.140607-19.24373-29.87046-19.24373Z" transform="translate(-.163557 0)" fill="#fff" stroke-width="0.6"/><ellipse rx="12.635434" ry="12.635434" transform="translate(86.324448 113.088713)" fill="none" stroke="#fff" stroke-width="3"/><ellipse rx="12.635434" ry="12.635434" transform="translate(86.716198 113.088713)" fill="none" stroke="#fff" stroke-width="3"/><ellipse rx="12.635434" ry="12.635434" transform="translate(123.243042 113.088713)" fill="none" stroke="#fff" stroke-width="3"/></g></svg>
